<?xml version="1.0" encoding="UTF-8"?><svg id="Layer_1" xmlns="http://www.w3.org/2000/svg" viewBox="0 0 2048 2048"><defs><style>.cls-1{fill:#baadf7;}.cls-2{fill:#533ec5;}</style></defs><path class="cls-2" d="M1757.56,1797.62c-24.54,23.16-53.95,40.97-84.52,56.11-9.29,4.6-13.7,5.94-22.34,10.01-8.74,4.11-26.18,9.49-35.96,12.28l-17.12,4.88c-16.37,4.67-45.03,7.12-60.86,9.56H511.24c-9.85-2.26-20.18-2.6-30.73-4.08-29.85-4.19-67.26-14.72-94.37-27.53l-15.69-7.41c-23.22-10.97-54.14-31.42-73.85-48.32-4.21-3.6-8.59-6.65-12.55-10.52-9.75-9.52-19.4-18.4-28.55-28.66-20.87-23.4-38.73-48.22-53.68-75.9-14.3-26.49-28.05-62.46-34.98-91.86-2.46-10.46-3.99-20.81-5.68-31.48-1.43-9.09-1.4-17.92-3.62-26.22v-1012.84c1.85-2.27.41-5.05.8-7.66.62-4.21,1.11-8.13,1.46-12.32,2.23-26.75,7.95-51.94,16.26-77.57,10.75-33.17,25.67-64.05,44.6-93.39,47.95-74.35,124.4-131.97,208.61-158.88,26.36-8.42,52.77-13.72,80.12-16.59,3.09-.32,5.52-1.43,8.76-.73,1.28.28,2.58-.29,3.24-.93h1006.07c-2.55.5,7.69,1.28,9.52,1.48,56.82,6.22,105.33,20.82,155.19,48.96,34.61,19.53,65.56,43.79,92.98,72.61,42.32,44.49,73.9,101.28,90.66,160.46,5.23,18.48,9.64,36.61,11.72,55.73l2.22,20.35c.2,1.86-1.03,4.24.7,5.1v1013.68c-2.62,1.4-1.12,4.38-1.34,6.96l-.83,9.79-1.95,14.77c-1.97,14.98-5.2,28.71-9.28,43.42-15.03,54.15-41.97,104.77-78.91,146.7M1791.47,1764.5l-4.99,6.76c2.13-2.88-25.26,24.97-23.04,20.94M1326.08,1298.52c6.16-7.02,11.08-17.06,11.08-26.8V477.52c0-18.06-17.82-37.51-34.74-37.45l-78.76.29c-17.74.07-30.87,16.15-33.61,32.75-1.41,8.58-.4,16.01-.4,24.84l-.28,771.16c0,23.7,16.69,41.98,41.33,41.84l69.98-.4c9.29-.05,18.97-4.73,25.39-12.04ZM823.33,1310.87c18.31-2.25,35.32-17.29,35.32-36.65l.18-600.36c0-22.22-15.2-41.26-38.03-41.32l-70.07-.21c-23.25-.07-40.07,18.04-40.08,40.76l-.09,595.21c0,10.81,3,20.86,9.95,28.81,6.56,7.5,16.53,13.43,26.74,13.46l76.07.29ZM1536.5,1310.93c21.48.1,40-16.5,40-38.24l-.06-382.28-.02-114.16c0-19.23-16.32-38.98-33.72-39.13l-73.01-.61c-14.71-.12-27.7,5.79-35.15,18.78-4.02,7.01-6.27,14.02-6.27,22.72l.13,265.44.06,230.02c0,17.44,17.61,37.04,36.31,37.12l71.74.33ZM1049.6,1124.64c19.33,4.28,34.83,14.68,48.27,29.28v-135.86s-.03-178.39-.03-178.39c0-11.62-5.54-21.59-13.55-29.07-7.18-6.71-16.45-9.7-26.55-9.6l-74.18.78c-22.19.23-33.68,22.63-33.66,42.91l.31,309.02c10.27-11.72,22.42-19.55,36.33-25.28,20.21-7.74,41.42-9.02,63.05-3.8ZM580.9,1310.67c24.27.08,39.05-19.8,39.03-42.27l-.33-300.91c-.03-23.28-15.96-42.47-40.04-42.51l-69.13-.09c-22.78-.03-39.11,19.65-39.1,41.71l.22,306.14c.01,19.29,16.19,37.64,35.34,37.7l74.01.23ZM981.28,1224.91c-.99-9.47,5.52-18.65,11.71-24.5,10.42-9.84,25.72-11.19,38.27-5.06,10.15,4.96,16.09,14.42,17.72,25.49l8.29,75.85,39.11-10.88-7.53-66.67c-2.1-15.56-7.31-29.98-17.79-41.69-24.03-26.87-58.05-34.18-90.28-17.29-17.4,9.12-29.42,23.69-35.22,42.46-3.94,12.74-5.55,25.38-2.9,38.77l6.03,56.71c1.37,12.91,1.77,25.18,4.11,38.04,9.7-11.47,20.1-21.21,33.12-27.92,1.29-.66,2.6-.96,3.06-1.7.75-1.19.52-2.68.37-4.19l-8.06-77.42ZM993.71,1388.55c2.42-17.13,14.83-29.04,31.33-30.89,2.13-.24,4.23-.57,6.15-1.41-.2-4.81-1.86-9.12-2.46-13.88l-2.93-23.2c-24.3.91-39.53,7.82-54.95,25.81-11.88,13.85-17.01,31.92-16.47,50.32,14.06-2.91,25.9-2.89,39.33-6.73ZM970.88,1443.71l-18.62,71.1c-9.5,35.28,9.05,73.58,42.69,87.45,22.26,9.18,46.62,7.82,67.47-4.44,15.33-9.02,26.84-23.23,31.33-40.38l7.91-30.22,24.16-93.14c8.16-31.45-7.43-70.87-39.3-84.95-2.74,3.66-3.78,7.1-5.74,10.79-4.4,8.25-8.64,16.27-12.02,25.21,17.12,8.06,22.03,25.86,17.51,42.86l-10.31,38.77-18.41,71.84c-3.46,13.51-11.02,24.83-24.93,28.79-11.65,3.31-23.66-.57-32.02-8.54-8.8-8.39-12.01-19.93-9.51-32.41l22.54-89.1-42.74,6.37Z"/><path class="cls-1" d="M1326.08,1298.52c-6.41,7.31-16.09,11.99-25.39,12.04l-69.98.4c-24.64.14-41.34-18.14-41.33-41.84l.28-771.16c0-8.83-1.01-16.27.4-24.84,2.74-16.6,15.86-32.69,33.61-32.75l78.76-.29c16.93-.06,34.74,19.39,34.74,37.45v794.21c0,9.74-4.92,19.78-11.08,26.8Z"/><path class="cls-1" d="M823.33,1310.87l-76.07-.29c-10.21-.04-20.18-5.96-26.74-13.46-6.95-7.95-9.96-18-9.95-28.81l.09-595.21c0-22.71,16.83-40.82,40.08-40.76l70.07.21c22.83.07,38.03,19.11,38.03,41.32l-.18,600.36c0,19.36-17.01,34.4-35.32,36.65Z"/><path class="cls-1" d="M1536.5,1310.93l-71.74-.33c-18.7-.09-36.31-19.68-36.31-37.12l-.06-230.02-.13-265.44c0-8.7,2.25-15.71,6.27-22.72,7.45-12.99,20.44-18.9,35.15-18.78l73.01.61c17.41.15,33.72,19.89,33.72,39.13l.02,114.16.06,382.28c0,21.73-18.52,38.34-40,38.24Z"/><path class="cls-1" d="M580.9,1310.67l-74.01-.23c-19.14-.06-35.32-18.41-35.34-37.7l-.22-306.14c-.02-22.07,16.32-41.74,39.1-41.71l69.13.09c24.09.03,40.02,19.22,40.04,42.51l.33,300.91c.02,22.47-14.76,42.35-39.03,42.27Z"/><path class="cls-1" d="M1049.6,1124.64c-21.63-5.22-42.85-3.94-63.05,3.8-13.91,5.73-26.06,13.56-36.33,25.28l-.31-309.02c-.02-20.28,11.47-42.68,33.66-42.91l74.18-.78c10.1-.11,19.37,2.89,26.55,9.6,8.01,7.49,13.55,17.46,13.55,29.07l.04,178.39v135.86c-13.45-14.59-28.96-25-48.29-29.28Z"/><path class="cls-1" d="M970.88,1443.71l42.74-6.37-22.54,89.1c-2.51,12.48.71,24.01,9.51,32.41,8.35,7.97,20.37,11.86,32.02,8.54,13.9-3.96,21.47-15.28,24.93-28.79l18.41-71.84,10.31-38.77c4.52-17-.39-34.79-17.51-42.86,3.38-8.94,7.62-16.96,12.02-25.21,1.96-3.68,3-7.13,5.74-10.79,31.87,14.08,47.46,53.5,39.3,84.95l-24.16,93.14-7.91,30.22c-4.49,17.15-16,31.36-31.33,40.38-20.85,12.26-45.21,13.62-67.47,4.44-33.64-13.87-52.19-52.18-42.69-87.45l18.62-71.1Z"/><path class="cls-1" d="M981.28,1224.91l8.06,77.42c.16,1.52.39,3-.37,4.19-.46.73-1.78,1.03-3.06,1.7-13.02,6.72-23.42,16.45-33.12,27.92-2.34-12.86-2.73-25.13-4.11-38.04l-6.03-56.71c-2.65-13.39-1.04-26.03,2.9-38.77,5.8-18.77,17.82-33.34,35.22-42.46,32.23-16.9,66.25-9.58,90.28,17.29,10.48,11.71,15.69,26.13,17.79,41.69l7.53,66.67-39.11,10.88-8.29-75.85c-1.63-11.06-7.57-20.53-17.72-25.49-12.55-6.13-27.85-4.79-38.27,5.06-6.19,5.85-12.7,15.03-11.71,24.5Z"/><path class="cls-1" d="M993.71,1388.55c-13.43,3.84-25.27,3.82-39.33,6.73-.55-18.4,4.59-36.47,16.47-50.32,15.43-17.99,30.66-24.89,54.95-25.81l2.93,23.2c.6,4.76,2.26,9.07,2.46,13.88-1.92.85-4.02,1.17-6.15,1.41-16.5,1.86-28.91,13.77-31.33,30.89Z"/></svg>